<?xml version="1.0" encoding="utf-8"?>
<svg version="1.1" id="Layer_1" xmlns="http://www.w3.org/2000/svg" xmlns:xlink="http://www.w3.org/1999/xlink" x="0px" y="0px" viewBox="0 0 1313 612.5" style="enable-background:new 0 0 1313 612.5;" xml:space="preserve">
    <g mask="url(&quot;#SvgjsMask1058&quot;)" fill="none">
        <rect width="1440" height="720" x="0" y="0" fill="url(#SvgjsLinearGradient1059)"></rect>
        <path d="M33 720L753 0L1420.5 0L700.5 720z" fill="url(#SvgjsLinearGradient1060)"></path>
        <path d="M515.2 720L1235.2 0L1913.2 0L1193.2 720z" fill="url(#SvgjsLinearGradient1060)"></path>
        <path d="M1431 720L711 0L232.5 0L952.5 720z" fill="url(#SvgjsLinearGradient1061)"></path>
        <path d="M932.8 720L212.79999999999995 0L-363.20000000000005 0L356.79999999999995 720z" fill="url(#SvgjsLinearGradient1061)"></path>
        <path d="M810.7694885771728 720L1440 90.76948857717275L1440 720z" fill="url(#SvgjsLinearGradient1060)"></path>
        <path d="M0 720L629.2305114228272 720L 0 90.76948857717275z" fill="url(#SvgjsLinearGradient1061)"></path>
    </g>
    <defs>
        <mask id="SvgjsMask1058">
            <rect width="1440" height="720" fill="#ffffff"></rect>
        </mask>
        <linearGradient x1="12.5%" y1="-25%" x2="87.5%" y2="125%" gradientUnits="userSpaceOnUse" id="SvgjsLinearGradient1059">
            <stop stop-color="rgba(14, 42, 71, 1)" offset="0"></stop>
            <stop stop-color="#00459e" offset="1"></stop>
        </linearGradient>
        <linearGradient x1="0%" y1="100%" x2="100%" y2="0%" id="SvgjsLinearGradient1060">
            <stop stop-color="rgba(15, 70, 185, 0.2)" offset="0"></stop>
            <stop stop-opacity="0" stop-color="rgba(15, 70, 185, 0.2)" offset="0.66"></stop>
        </linearGradient>
        <linearGradient x1="100%" y1="100%" x2="0%" y2="0%" id="SvgjsLinearGradient1061">
            <stop stop-color="rgba(15, 70, 185, 0.2)" offset="0"></stop>
            <stop stop-opacity="0" stop-color="rgba(15, 70, 185, 0.2)" offset="0.66"></stop>
        </linearGradient>
    </defs>
</svg>
